# xmcd
#
# Track frame offsets: 
#        150
#        15057
#        33282
#        43595
#        60412
#        74485
#        87257
#        100897
#        116380
#        130472
#        141525
#        157685
#        172817
#        187867
#        200135
#        215022
#
# Disc length: 3033 seconds
#
# Revision: 2
# Processed by: cddbd v1.5.1PL0 Copyright (c) Steve Scherf et al.
# Submitted via: ExactAudioCopy v0.95b2
#
DISCID=d40bd710
DTITLE=Various Artist - HOT COUNTRY HITS 2
DYEAR=1900
DGENRE=
TTITLE0=Rodney Crowell - I Couldn't Leave You If I Tried
TTITLE1=Rosanne Cash - Runaway Train
TTITLE2=George Jones - I'm A One Woman Man
TTITLE3=Merle Haggard - We Never Touch At All
TTITLE4=Lori Yates - Promises, Promises
TTITLE5=Dwight Yoakam and Buck Owens - Streets of Bakersfield
TTITLE6=Steve Earle - Devil's Right Hand
TTITLE7=Shenandoah - Mama Knows
TTITLE8=Ricky Van Shelton - I'll Leave This World Loving You
TTITLE9=Vern Gosdin - Set 'Em Up Joe
TTITLE10=Willie Nelson (With Julio Iglesias) - Spanish Eyes
TTITLE11=Kathy Mattea - Eighteen Wheels And A Dozen Roses
TTITLE12=The O'Kanes - One True Love
TTITLE13=Sweethearts Of The Rodeo - Satisfy You
TTITLE14=Paul Overstreet - Love Helps Those
TTITLE15=Roy Orbison - Crying
EXTD=
EXTT0=Rodney Crowell\n\n
EXTT1=Rosanne Cash\n
EXTT2=George Jones\n
EXTT3=Merle Haggard\n
EXTT4=Lori Yates\n
EXTT5=Dwight Yoakam and Buck Owens\n
EXTT6=Steve Earle\n
EXTT7=Shenandoah\n
EXTT8=Ricky Van Shelton\n
EXTT9=Vern Goslin\n
EXTT10=Willie Nelson (with Julio Iglesias]\n
EXTT11=Kathy Mattea\n
EXTT12=The O'Kanes\n
EXTT13=Sweethearts of the Rodeo\n
EXTT14=Paul Overstreet\n
EXTT15=Roy Orbison\n
PLAYORDER=
